# xmcd CD database file
# Copyright (C) 1997 Ti Kan
# 
# Track frame offsets:
#     225
#     13437
#     26135
#     36782
#     49735
#     61862
#     72132
#     81662
#     94502
#     105175
#     114680
#     129952
#     141800
#     154815
#     164917
#     177807
#     188237
#     199980
#     210917
#     220687
# 
# Disc length: 3128 seconds
# 
# Revision: 1
# Processed by: cddbd v1.4b41PL1 Copyright (c) Steve Scherf et al.
# Submitted via: DiscPlay 4.0.4
# 
DISCID=1d0c3514
DTITLE=Jim Reeves - The legendary Jim Reeves
DYEAR=1900
DGENRE=
TTITLE0=Danny boy
TTITLE1=i can't stop loving you
TTITLE2=am i that easy to forget
TTITLE3=have i told you lately
TTITLE4=maria elena
TTITLE5=making believe
TTITLE6=hawaiian wedding song
TTITLE7=goodnight irene
TTITLE8=he'll have to go
TTITLE9=billy bayou
TTITLE10=blue side of lonesome
TTITLE11=welcome to my world
TTITLE12=distant drums
TTITLE13=is it really over
TTITLE14=four walls
TTITLE15=am i losing you
TTITLE16=i missed me
TTITLE17=i guess i'm crazy
TTITLE18=i won't come in while he's there
TTITLE19=tis is it
EXTD=
EXTT0=
EXTT1=
EXTT2=
EXTT3=
EXTT4=
EXTT5=
EXTT6=
EXTT7=
EXTT8=
EXTT9=
EXTT10=
EXTT11=
EXTT12=
EXTT13=
EXTT14=
EXTT15=
EXTT16=
EXTT17=
EXTT18=
EXTT19=
PLAYORDER=
